<?xml version="1.0" encoding="utf-8"?>
<!-- Generator: Adobe Illustrator 26.0.1, SVG Export Plug-In . SVG Version: 6.00 Build 0)  -->
<svg version="1.1" id="Layer_1" xmlns="http://www.w3.org/2000/svg" xmlns:xlink="http://www.w3.org/1999/xlink" x="0px" y="0px"
	 viewBox="0 0 24 24" style="enable-background:new 0 0 24 24;" xml:space="preserve">
<style type="text/css">
	.st0{fill:#FEF2CF;}
	.st1{fill:#FEA92B;}
</style>
<g>
	<path class="st0" d="M12.01,24C5.37,24.08-0.09,18.52,0,11.95C0.09,5.08,5.48-0.08,12.13,0C18.99,0.09,24,5.37,24,12.12
		C24,18.76,18.55,24.05,12.01,24z"/>
	<path class="st1" d="M11.96,3.45c0.93,1.7,1.78,3.24,2.61,4.8c0.26,0.49,0.59,0.84,1.09,1.1c1.57,0.84,3.12,1.71,4.84,2.65
		c-1.61,0.88-3.06,1.71-4.53,2.48c-0.65,0.34-1.13,0.76-1.48,1.43c-0.78,1.52-1.63,3-2.53,4.64c-0.84-1.52-1.68-2.91-2.38-4.37
		c-0.43-0.88-1.05-1.42-1.89-1.85c-1.38-0.7-2.73-1.48-4.18-2.28c0.75-0.66,1.57-1.08,2.38-1.39c2.37-0.93,3.88-2.6,4.82-4.92
		C11.02,4.99,11.49,4.31,11.96,3.45z"/>
</g>
</svg>
